<?xml version="1.0" encoding="UTF-8" standalone="no"?>
<!-- Created with Inkscape (http://www.inkscape.org/) -->

<svg
   xmlns:dc="http://purl.org/dc/elements/1.1/"
   xmlns:cc="http://creativecommons.org/ns#"
   xmlns:rdf="http://www.w3.org/1999/02/22-rdf-syntax-ns#"
   xmlns:svg="http://www.w3.org/2000/svg"
   xmlns="http://www.w3.org/2000/svg"
   xmlns:sodipodi="http://sodipodi.sourceforge.net/DTD/sodipodi-0.dtd"
   xmlns:inkscape="http://www.inkscape.org/namespaces/inkscape"
   width="210mm"
   height="297mm"
   viewBox="0 0 744.09448819 1052.3622047"
   id="svg2"
   version="1.1"
   inkscape:version="0.91 r13725"
   sodipodi:docname="SoftwareFactory.svg">
  <defs
     id="defs4" />
  <sodipodi:namedview
     id="base"
     pagecolor="#ffffff"
     bordercolor="#666666"
     borderopacity="1.0"
     inkscape:pageopacity="0.0"
     inkscape:pageshadow="2"
     inkscape:zoom="0.98994949"
     inkscape:cx="251.07344"
     inkscape:cy="552.15476"
     inkscape:document-units="px"
     inkscape:current-layer="layer1"
     showgrid="false"
     inkscape:window-width="1920"
     inkscape:window-height="1137"
     inkscape:window-x="-8"
     inkscape:window-y="-8"
     inkscape:window-maximized="1"
     inkscape:snap-text-baseline="true" />
  <metadata
     id="metadata7">
    <rdf:RDF>
      <cc:Work
         rdf:about="">
        <dc:format>image/svg+xml</dc:format>
        <dc:type
           rdf:resource="http://purl.org/dc/dcmitype/StillImage" />
        <dc:title />
      </cc:Work>
    </rdf:RDF>
  </metadata>
  <g
     inkscape:label="Calque 1"
     inkscape:groupmode="layer"
     id="layer1">
    <rect
       style="opacity:1;fill:#cef5ff;fill-opacity:1;stroke:#ffffff;stroke-width:6;stroke-linecap:round;stroke-linejoin:round;stroke-miterlimit:4;stroke-dasharray:none;stroke-opacity:1"
       id="rect4382"
       width="713.16772"
       height="486.89352"
       x="13.292377"
       y="288.68689" />
    <path
       style="fill:#80e5ff;fill-opacity:1;stroke:#0d85f2;stroke-width:5.11768007;stroke-linecap:round;stroke-linejoin:round;stroke-miterlimit:4;stroke-dasharray:none;stroke-opacity:1"
       d="m 391.77139,394.17764 a 101.65362,96.179964 0 0 0 -81.39177,38.75285 64.119978,64.119978 0 0 0 -15.56999,-2.0013 64.119978,64.119978 0 0 0 -64.11982,64.11981 64.119978,64.119978 0 0 0 0.10476,2.96134 c -27.96631,8.51601 -47.8047,30.64158 -47.8047,56.72932 l 0,0.25765 c 0,33.50163 32.71276,60.47214 73.347,60.47214 l 52.82079,0 -2.36907,-18.11866 a 60.34107,60.255697 0 0 1 -17.74875,-7.28253 l -14.26251,11.47437 A 78.219905,78.109241 0 0 1 260.66983,588.532 l 10.09847,-15.79235 a 60.34107,60.255697 0 0 1 -7.81065,-16.15477 l -18.40838,-0.36669 a 78.219905,78.109241 0 0 1 -2.15525,-17.85032 78.219905,78.109241 0 0 1 0.0631,-1.77894 l 18.40196,-5.77299 a 60.34107,60.255697 0 0 1 3.993,-14.97773 L 250.6676,503.46368 a 78.219905,78.109241 0 0 1 11.53745,-16.90418 l 18.05451,7.48993 a 60.34107,60.255697 0 0 1 10.68966,-7.71765 l -2.94636,-18.87022 a 78.219905,78.109241 0 0 1 20.11354,-6.10548 l 9.01123,17.33075 a 60.34107,60.255697 0 0 1 3.47341,-0.17425 60.34107,60.255697 0 0 1 8.47349,0.66175 l 10.05036,-16.61019 a 78.219905,78.109241 0 0 1 19.67416,7.74117 l -4.1865,18.76651 a 60.34107,60.255697 0 0 1 9.45703,8.00309 l 18.45007,-6.29258 a 78.219905,78.109241 0 0 1 10.43844,17.98716 l -14.98093,11.45406 a 60.34107,60.255697 0 0 1 2.73897,14.03373 l 18.01602,6.95753 a 78.219905,78.109241 0 0 1 -3.35155,19.85484 l -18.4212,-0.82212 a 60.34107,60.255697 0 0 1 -8.17627,14.69976 l 9.11064,16.51077 a 78.219905,78.109241 0 0 1 -14.93389,12.49106 l -13.42115,-12.30718 a 60.34107,60.255697 0 0 1 -17.71348,6.29578 l -3.45738,17.53173 155.04774,0 c 40.63424,0 73.347,-26.97051 73.347,-60.47214 l 0,-0.25765 c 0,-30.76795 -27.59279,-56.0245 -63.57247,-59.94189 a 101.65362,96.179964 0 0 0 0.2352,-4.44093 101.65362,96.179964 0 0 0 -31.70445,-69.7207 l -4.9017,8.88079 a 37.223844,37.171181 0 0 1 5.04389,9.06789 l 11.36425,-0.50674 a 48.253131,48.184861 0 0 1 2.06759,12.24837 l -11.11408,4.29233 a 37.223844,37.171181 0 0 1 -1.68915,8.65629 l 9.24108,7.06658 a 48.253131,48.184861 0 0 1 -6.43903,11.09592 l -11.38243,-3.88181 a 37.223844,37.171181 0 0 1 -5.83394,4.93698 l 2.58289,11.57699 a 48.253131,48.184861 0 0 1 -12.13719,4.77556 l -6.19956,-10.246 a 37.223844,37.171181 0 0 1 -5.22777,0.40731 37.223844,37.171181 0 0 1 -2.14135,-0.1069 l -5.56025,10.69073 a 48.253131,48.184861 0 0 1 -12.4066,-3.76634 l 1.81635,-11.64114 a 37.223844,37.171181 0 0 1 -6.59405,-4.76058 l -11.1376,4.62053 a 48.253131,48.184861 0 0 1 -7.11683,-10.42775 l 8.75037,-7.63426 a 37.223844,37.171181 0 0 1 -2.46314,-9.23893 l -11.3525,-3.56108 a 48.253131,48.184861 0 0 1 -0.0385,-1.09794 48.253131,48.184861 0 0 1 1.32886,-11.01253 l 11.35676,-0.22557 a 37.223844,37.171181 0 0 1 4.81725,-9.9659 l -6.2295,-9.74247 a 48.253131,48.184861 0 0 1 8.70333,-8.02554 l 8.79847,7.07834 a 37.223844,37.171181 0 0 1 10.94838,-4.49225 l 1.46998,-11.23704 a 48.253131,48.184861 0 0 1 7.05909,-0.56232 48.253131,48.184861 0 0 1 4.70713,0.23627 l 2.20978,11.20068 a 37.223844,37.171181 0 0 1 10.927,3.88394 l 6.88697,-6.31609 A 101.65362,96.179964 0 0 0 391.7714,394.17764 Z"
       id="rect4016"
       inkscape:connector-curvature="0" />
    <g
       style="font-style:normal;font-variant:normal;font-weight:bold;font-stretch:normal;font-size:80px;line-height:125%;font-family:'Caviar Dreams';-inkscape-font-specification:'Caviar Dreams, Bold';text-align:start;letter-spacing:0px;word-spacing:0px;writing-mode:lr-tb;text-anchor:start;fill:#000000;fill-opacity:1;stroke:none;stroke-width:1px;stroke-linecap:butt;stroke-linejoin:miter;stroke-opacity:1"
       id="text4854"
       transform="matrix(0.6821455,0,0,0.6821455,108.71244,169.95649)">
      <g
         id="g4349"
         transform="translate(-11.937077,-50)">
        <path
           id="path4261"
           style="font-style:normal;font-variant:normal;font-weight:bold;font-stretch:normal;font-size:80px;line-height:125%;font-family:'Caviar Dreams';-inkscape-font-specification:'Caviar Dreams, Bold';text-align:start;writing-mode:lr-tb;text-anchor:start"
           d="m 86.043526,748.86334 q -6.640625,-2.22656 -10.78125,-6.32812 -4.101563,-4.14063 -4.101563,-10.23438 0,-5.97656 4.257813,-10.27344 4.296875,-4.29687 10.390625,-4.29687 6.015625,0 10.3125,4.25781 2.421875,2.34375 4.062499,7.46094 l -7.343749,2.89062 q -1.328125,-3.59375 -2.421875,-4.6875 -1.914063,-1.875 -4.609375,-1.875 -2.734375,0 -4.648438,1.91407 -1.914062,1.875 -1.914062,4.60937 0,2.73438 1.914062,4.64844 2.148438,2.10937 5.9375,3.86719 7.34375,2.38281 12.460938,7.5 5.742189,5.66406 5.742189,13.75 0,8.08593 -5.742189,13.82812 -5.703125,5.70313 -13.75,5.70313 -8.085938,0 -13.789063,-5.74219 -4.570312,-4.57031 -5.78125,-12.61719 l 7.851563,-2.85156 q 0.742187,6.91406 3.632812,9.80469 3.359375,3.35937 8.085938,3.35937 4.726562,0 8.085937,-3.35937 3.359375,-3.35938 3.359375,-8.125 0,-4.72657 -3.359375,-8.08594 -3.203125,-3.20313 -7.851562,-5.11719 z"
           inkscape:connector-curvature="0" />
        <path
           id="path4263"
           d="m 133.15234,737.45703 c -6.11979,0 -11.35417,2.17448 -15.70312,6.52344 -1.90647,1.90646 -3.39412,3.98651 -4.46484,6.23828 l 9.97656,0 c 0.1052,-0.11249 0.19895,-0.22914 0.30859,-0.33984 2.73437,-2.73438 6.02865,-4.10157 9.88281,-4.10157 3.85417,0 7.13542,1.36719 9.84375,4.10157 0.11051,0.1105 0.20451,0.22755 0.31055,0.33984 l 10.01367,0 c -1.07072,-2.25177 -2.55838,-4.33182 -4.46484,-6.23828 -4.32292,-4.34896 -9.55729,-6.52344 -15.70313,-6.52344 z m -21.80468,17.76172 c -0.27992,1.44354 -0.42188,2.94472 -0.42188,4.50391 0,2.05216 0.24753,4.00169 0.73242,5.85351 l 8.80274,0 c -0.82564,-1.7787 -1.25391,-3.72551 -1.25391,-5.85351 0,-1.59846 0.25045,-3.09616 0.72266,-4.50391 l -8.58203,0 z m 35.02148,0 c 0.47674,1.40775 0.72852,2.90546 0.72852,4.50391 0,2.12805 -0.43201,4.07478 -1.26563,5.85351 l 8.81445,0 c 0.4849,-1.85182 0.73243,-3.80135 0.73243,-5.85351 0,-1.55919 -0.14002,-3.06038 -0.41993,-4.50391 l -8.58984,0 z m -32.67383,15.35742 c 0.98847,1.7383 2.23484,3.36961 3.75391,4.88867 4.34895,4.34896 9.58333,6.52344 15.70312,6.52344 6.14584,0 11.38021,-2.17448 15.70313,-6.52344 1.51907,-1.51906 2.76544,-3.15037 3.75391,-4.88867 l -10.73243,0 c -2.47903,2.03276 -5.38556,3.05274 -8.72461,3.05274 -3.33922,0 -6.25719,-1.01975 -8.75586,-3.05274 l -10.70117,0 z"
           style="font-style:normal;font-variant:normal;font-weight:bold;font-stretch:normal;font-size:80px;line-height:125%;font-family:'Caviar Dreams';-inkscape-font-specification:'Caviar Dreams, Bold';text-align:start;writing-mode:lr-tb;text-anchor:start"
           inkscape:connector-curvature="0" />
        <path
           id="path4265"
           style="font-style:normal;font-variant:normal;font-weight:bold;font-stretch:normal;font-size:80px;line-height:125%;font-family:'Caviar Dreams';-inkscape-font-specification:'Caviar Dreams, Bold';text-align:start;writing-mode:lr-tb;text-anchor:start"
           d="m 174.20759,748.78522 0,32.1875 -8.125,0 0,-32.1875 -3.59375,0 0,-8.08594 3.59375,0 0,-7.22656 q 0.27344,-5 3.82812,-8.59375 3.67188,-3.4375 8.51563,-3.4375 2.42187,0 7.34375,1.67968 l -2.69531,7.65625 q -3.4375,-1.44531 -4.33594,-1.44531 -1.64063,0 -3.16406,1.36719 -1.28907,1.28906 -1.36719,3.08594 l 0,6.91406 7.22656,0 0,8.08594 -7.22656,0 z"
           inkscape:connector-curvature="0" />
        <path
           id="path4267"
           style="font-style:normal;font-variant:normal;font-weight:bold;font-stretch:normal;font-size:80px;line-height:125%;font-family:'Caviar Dreams';-inkscape-font-specification:'Caviar Dreams, Bold';text-align:start;writing-mode:lr-tb;text-anchor:start"
           d="m 194.0904,740.73834 0,-15.07812 8.08594,0 0,15.07812 7.22656,0 0,8.08594 -7.22656,0 0,32.10937 -8.08594,0 0,-32.10937 -7.22656,0 0,-8.08594 7.22656,0 z"
           inkscape:connector-curvature="0" />
        <path
           id="path4269"
           style="font-style:normal;font-variant:normal;font-weight:bold;font-stretch:normal;font-size:80px;line-height:125%;font-family:'Caviar Dreams';-inkscape-font-specification:'Caviar Dreams, Bold';text-align:start;writing-mode:lr-tb;text-anchor:start"
           d="m 236.47321,769.01959 0,-28.28125 8.08594,0 0,27.61719 q 0,2.14844 1.44531,3.59375 1.44532,1.40625 3.4375,1.40625 4.80469,0 4.80469,-5.97656 l 0,-26.64063 8.125,0 0,28.16406 q -0.19531,5.15625 -3.78906,8.75 -3.78906,3.82813 -9.14063,3.82813 -5.39062,0 -8.86718,-3.75 -3.55469,3.75 -8.90625,3.75 -5.39063,0 -9.17969,-3.82813 -3.59375,-3.59375 -3.75,-8.75 l 0,-28.16406 8.08594,0 0,26.64063 q 0,5.97656 4.84375,5.97656 1.99218,0 3.4375,-1.40625 1.21093,-1.21094 1.36718,-2.92969 z"
           inkscape:connector-curvature="0" />
        <path
           id="path4271"
           style="font-style:normal;font-variant:normal;font-weight:bold;font-stretch:normal;font-size:80px;line-height:125%;font-family:'Caviar Dreams';-inkscape-font-specification:'Caviar Dreams, Bold';text-align:start;writing-mode:lr-tb;text-anchor:start"
           d="m 308.03571,762.73053 0,-5.9375 q -0.70312,-3.78906 -3.75,-6.875 -4.10156,-4.0625 -9.84375,-4.0625 -5.78125,0 -9.88281,4.0625 -4.0625,4.0625 -4.0625,9.84375 0,5.74219 4.0625,9.84375 4.10156,4.0625 9.88281,4.0625 5.74219,0 9.84375,-4.0625 3.04688,-3.08594 3.75,-6.875 z m 0,-19.17969 0,-2.8125 8.125,0 0,40.23438 -8.125,0 0,-5.03907 q -5.85937,6.05469 -13.59375,6.05469 -9.21875,0 -15.74218,-6.48437 -6.48438,-6.52344 -6.48438,-15.74219 0,-9.21875 6.48438,-15.70313 6.52343,-6.52343 15.74218,-6.52343 7.73438,0 13.59375,6.01562 z"
           inkscape:connector-curvature="0" />
        <path
           id="path4273"
           style="font-style:normal;font-variant:normal;font-weight:bold;font-stretch:normal;font-size:80px;line-height:125%;font-family:'Caviar Dreams';-inkscape-font-specification:'Caviar Dreams, Bold';text-align:start;writing-mode:lr-tb;text-anchor:start"
           d="m 336.04353,746.16803 q 4.53125,-6.13281 11.13281,-6.44531 l 0,8.39843 q -4.41406,0.23438 -7.03125,2.85157 -3.94531,3.90625 -4.10156,9.29687 l 0,20.66406 -8.08594,0 0,-40.19531 8.08594,0 0,5.42969 z"
           inkscape:connector-curvature="0" />
        <path
           id="path4275"
           style="font-style:normal;font-variant:normal;font-weight:bold;font-stretch:normal;font-size:80px;line-height:125%;font-family:'Caviar Dreams';-inkscape-font-specification:'Caviar Dreams, Bold';text-align:start;writing-mode:lr-tb;text-anchor:start"
           d="m 367.41071,771.83209 q 2.03125,1.79688 7.38282,1.79688 5.78125,0 9.88281,-4.0625 0.50781,-0.54688 2.07031,-2.42188 l 8.08594,2.89063 q -2.96875,4.10156 -4.29688,5.42968 -6.52343,6.52344 -15.74218,6.52344 -9.17969,0 -15.70313,-6.52344 -6.52344,-6.52343 -6.52344,-15.74218 0,-9.21875 6.52344,-15.74219 6.52344,-6.52344 15.70313,-6.52344 7.89062,0 13.82812,4.76563 0.97656,0.82031 1.91406,1.75781 0.39063,0.39062 2.22657,2.46094 l -4.0625,4.10156 -21.28907,21.28906 z m 13.51563,-25 q -1.36719,-1.05469 -6.13281,-1.05469 -5.74219,0 -9.84375,4.10157 -4.0625,4.0625 -4.0625,9.84375 0,4.72656 1.05468,6.13281 l 18.98438,-19.02344 z"
           inkscape:connector-curvature="0" />
        <path
           id="path4277"
           style="font-style:normal;font-variant:normal;font-weight:bold;font-stretch:normal;font-size:80px;line-height:125%;font-family:'Caviar Dreams';-inkscape-font-specification:'Caviar Dreams, Bold';text-align:start;writing-mode:lr-tb;text-anchor:start"
           d="m 461.94196,718.43365 0,8.08594 -21.99218,0 0,19.10156 21.99218,0 0,8.08594 -21.99218,0 0,27.22656 -8.08594,0 0,-62.5 30.07812,0 z"
           inkscape:connector-curvature="0" />
        <path
           id="path4279"
           style="font-style:normal;font-variant:normal;font-weight:bold;font-stretch:normal;font-size:80px;line-height:125%;font-family:'Caviar Dreams';-inkscape-font-specification:'Caviar Dreams, Bold';text-align:start;writing-mode:lr-tb;text-anchor:start"
           d="m 505.84821,762.73053 0,-5.9375 q -0.70312,-3.78906 -3.75,-6.875 -4.10156,-4.0625 -9.84375,-4.0625 -5.78125,0 -9.88281,4.0625 -4.0625,4.0625 -4.0625,9.84375 0,5.74219 4.0625,9.84375 4.10156,4.0625 9.88281,4.0625 5.74219,0 9.84375,-4.0625 3.04688,-3.08594 3.75,-6.875 z m 0,-19.17969 0,-2.8125 8.125,0 0,40.23438 -8.125,0 0,-5.03907 q -5.85937,6.05469 -13.59375,6.05469 -9.21875,0 -15.74218,-6.48437 -6.48438,-6.52344 -6.48438,-15.74219 0,-9.21875 6.48438,-15.70313 6.52343,-6.52343 15.74218,-6.52343 7.73438,0 13.59375,6.01562 z"
           inkscape:connector-curvature="0" />
        <path
           id="path4281"
           style="font-style:normal;font-variant:normal;font-weight:bold;font-stretch:normal;font-size:80px;line-height:125%;font-family:'Caviar Dreams';-inkscape-font-specification:'Caviar Dreams, Bold';text-align:start;writing-mode:lr-tb;text-anchor:start"
           d="m 557.60603,767.14459 8.08593,2.89063 q -2.96875,4.10156 -4.29687,5.42968 -6.52344,6.52344 -15.74219,6.52344 -9.17969,0 -15.70312,-6.52344 -6.52344,-6.52343 -6.52344,-15.74218 0,-9.21875 6.52344,-15.74219 6.52343,-6.52344 15.70312,-6.52344 9.21875,0 15.74219,6.52344 1.32812,1.32812 4.29687,5.35156 l -8.08593,2.96875 q -1.5625,-1.91406 -2.10938,-2.46094 -4.0625,-4.0625 -9.84375,-4.0625 -5.74219,0 -9.84375,4.10157 -4.0625,4.0625 -4.0625,9.84375 0,5.74218 4.0625,9.84375 4.10156,4.0625 9.84375,4.0625 5.78125,0 9.88281,-4.0625 0.50782,-0.54688 2.07032,-2.42188 z"
           inkscape:connector-curvature="0" />
        <path
           id="path4283"
           style="font-style:normal;font-variant:normal;font-weight:bold;font-stretch:normal;font-size:80px;line-height:125%;font-family:'Caviar Dreams';-inkscape-font-specification:'Caviar Dreams, Bold';text-align:start;writing-mode:lr-tb;text-anchor:start"
           d="m 579.87165,740.73834 0,-15.07812 8.08594,0 0,15.07812 7.22656,0 0,8.08594 -7.22656,0 0,32.10937 -8.08594,0 0,-32.10937 -7.22656,0 0,-8.08594 7.22656,0 z"
           inkscape:connector-curvature="0" />
        <path
           id="path4285"
           d="m 624.40234,737.45703 c -6.11979,0 -11.35417,2.17448 -15.70312,6.52344 -1.90647,1.90646 -3.39412,3.98651 -4.46484,6.23828 l 9.97656,0 c 0.1052,-0.11249 0.19895,-0.22914 0.30859,-0.33984 2.73437,-2.73438 6.02865,-4.10157 9.88281,-4.10157 3.85417,0 7.13542,1.36719 9.84375,4.10157 0.11051,0.1105 0.20451,0.22755 0.31055,0.33984 l 10.01367,0 c -1.07072,-2.25177 -2.55838,-4.33182 -4.46484,-6.23828 -4.32292,-4.34896 -9.55729,-6.52344 -15.70313,-6.52344 z m -21.80468,17.76172 c -0.27992,1.44354 -0.42188,2.94472 -0.42188,4.50391 0,2.05216 0.24753,4.00169 0.73242,5.85351 l 8.80274,0 c -0.82564,-1.7787 -1.25391,-3.72551 -1.25391,-5.85351 0,-1.59846 0.25045,-3.09616 0.72266,-4.50391 l -8.58203,0 z m 35.02148,0 c 0.47674,1.40775 0.72852,2.90546 0.72852,4.50391 0,2.12805 -0.43201,4.07478 -1.26563,5.85351 l 8.81445,0 c 0.4849,-1.85182 0.73243,-3.80135 0.73243,-5.85351 0,-1.55919 -0.14002,-3.06038 -0.41993,-4.50391 l -8.58984,0 z m -32.67383,15.35742 c 0.98847,1.7383 2.23484,3.36961 3.75391,4.88867 4.34895,4.34896 9.58333,6.52344 15.70312,6.52344 6.14584,0 11.38021,-2.17448 15.70313,-6.52344 1.51907,-1.51906 2.76544,-3.15037 3.75391,-4.88867 l -10.73243,0 c -2.47903,2.03276 -5.38556,3.05274 -8.72461,3.05274 -3.33922,0 -6.25719,-1.01975 -8.75586,-3.05274 l -10.70117,0 z"
           style="font-style:normal;font-variant:normal;font-weight:bold;font-stretch:normal;font-size:80px;line-height:125%;font-family:'Caviar Dreams';-inkscape-font-specification:'Caviar Dreams, Bold';text-align:start;writing-mode:lr-tb;text-anchor:start"
           inkscape:connector-curvature="0" />
        <path
           id="path4287"
           style="font-style:normal;font-variant:normal;font-weight:bold;font-stretch:normal;font-size:80px;line-height:125%;font-family:'Caviar Dreams';-inkscape-font-specification:'Caviar Dreams, Bold';text-align:start;writing-mode:lr-tb;text-anchor:start"
           d="m 664.16853,746.16803 q 4.53125,-6.13281 11.13281,-6.44531 l 0,8.39843 q -4.41406,0.23438 -7.03125,2.85157 -3.94531,3.90625 -4.10156,9.29687 l 0,20.66406 -8.08594,0 0,-40.19531 8.08594,0 0,5.42969 z"
           inkscape:connector-curvature="0" />
        <path
           id="path4289"
           style="font-style:normal;font-variant:normal;font-weight:bold;font-stretch:normal;font-size:80px;line-height:125%;font-family:'Caviar Dreams';-inkscape-font-specification:'Caviar Dreams, Bold';text-align:start;writing-mode:lr-tb;text-anchor:start"
           d="m 697.60603,794.44928 -8.55469,0 10.70312,-22.46094 -14.96093,-31.25 9.10156,0 10.19531,21.99219 10.19531,-21.99219 9.0625,0 -25.74218,53.71094 z"
           inkscape:connector-curvature="0" />
      </g>
    </g>
  </g>
</svg>
